<mxfile host="app.diagrams.net" agent="Mozilla/5.0 (Windows NT 10.0; Win64; x64) AppleWebKit/537.36 (KHTML, like Gecko) Chrome/137.0.0.0 Safari/537.36" version="27.0.3">
  <diagram name="Page-1" id="NogRkSOAm32XdrOW8xc-">
    <mxGraphModel dx="580" dy="377" grid="1" gridSize="10" guides="1" tooltips="1" connect="1" arrows="1" fold="1" page="1" pageScale="1" pageWidth="827" pageHeight="1169" background="light-dark(#ffffff, #121212)" math="0" shadow="0">
      <root>
        <mxCell id="0" />
        <mxCell id="1" parent="0" />
        <mxCell id="gYwktDeHYhvJT9wic2Yn-6" value="&lt;font style=&quot;font-size: 11px;&quot;&gt;Document Ingestion and Text Extraction&lt;/font&gt;&lt;div&gt;&lt;br&gt;&lt;/div&gt;&lt;div&gt;&lt;br&gt;&lt;/div&gt;&lt;div&gt;&lt;br&gt;&lt;/div&gt;&lt;div&gt;&lt;br&gt;&lt;/div&gt;&lt;div&gt;&lt;br&gt;&lt;/div&gt;&lt;div&gt;&lt;br&gt;&lt;/div&gt;&lt;div&gt;&lt;br&gt;&lt;/div&gt;&lt;div&gt;&lt;br&gt;&lt;/div&gt;&lt;div&gt;&lt;br&gt;&lt;/div&gt;" style="rounded=1;whiteSpace=wrap;html=1;gradientColor=none;fillColor=none;dashed=1;dashPattern=8 8;" vertex="1" parent="1">
          <mxGeometry x="110" y="220" width="610" height="153" as="geometry" />
        </mxCell>
        <mxCell id="T2LF8L_uDnmq5nDxk4sU-1" value="AWS Cloud" style="sketch=0;outlineConnect=0;gradientColor=none;html=1;whiteSpace=wrap;fontSize=12;fontStyle=0;shape=mxgraph.aws4.group;grIcon=mxgraph.aws4.group_aws_cloud;strokeColor=#AAB7B8;fillColor=none;verticalAlign=top;align=left;spacingLeft=30;fontColor=#AAB7B8;dashed=0;" parent="1" vertex="1">
          <mxGeometry x="100" y="189" width="630" height="691" as="geometry" />
        </mxCell>
        <mxCell id="T2LF8L_uDnmq5nDxk4sU-6" value="" style="edgeStyle=orthogonalEdgeStyle;rounded=0;orthogonalLoop=1;jettySize=auto;html=1;" parent="1" source="T2LF8L_uDnmq5nDxk4sU-2" target="T2LF8L_uDnmq5nDxk4sU-5" edge="1">
          <mxGeometry relative="1" as="geometry" />
        </mxCell>
        <mxCell id="T2LF8L_uDnmq5nDxk4sU-2" value="&lt;i&gt;&lt;font style=&quot;font-size: 9px;&quot;&gt;Amazon S3&lt;/font&gt;&lt;/i&gt;&lt;div&gt;&lt;i&gt;&lt;font style=&quot;font-size: 9px;&quot;&gt;Document Storage&lt;/font&gt;&lt;/i&gt;&lt;/div&gt;" style="sketch=0;points=[[0,0,0],[0.25,0,0],[0.5,0,0],[0.75,0,0],[1,0,0],[0,1,0],[0.25,1,0],[0.5,1,0],[0.75,1,0],[1,1,0],[0,0.25,0],[0,0.5,0],[0,0.75,0],[1,0.25,0],[1,0.5,0],[1,0.75,0]];outlineConnect=0;fontColor=#232F3E;fillColor=#7AA116;strokeColor=#ffffff;dashed=0;verticalLabelPosition=bottom;verticalAlign=top;align=center;html=1;fontSize=12;fontStyle=0;aspect=fixed;shape=mxgraph.aws4.resourceIcon;resIcon=mxgraph.aws4.s3;" parent="1" vertex="1">
          <mxGeometry x="130" y="262" width="48" height="48" as="geometry" />
        </mxCell>
        <mxCell id="T2LF8L_uDnmq5nDxk4sU-4" value="" style="edgeStyle=orthogonalEdgeStyle;rounded=0;orthogonalLoop=1;jettySize=auto;html=1;" parent="1" source="T2LF8L_uDnmq5nDxk4sU-3" target="T2LF8L_uDnmq5nDxk4sU-2" edge="1">
          <mxGeometry relative="1" as="geometry" />
        </mxCell>
        <mxCell id="T2LF8L_uDnmq5nDxk4sU-3" value="Documents" style="html=1;verticalLabelPosition=bottom;align=center;labelBackgroundColor=#ffffff;verticalAlign=top;strokeWidth=2;strokeColor=#0080F0;shadow=0;dashed=0;shape=mxgraph.ios7.icons.documents;" parent="1" vertex="1">
          <mxGeometry x="40" y="271" width="22.5" height="30" as="geometry" />
        </mxCell>
        <mxCell id="T2LF8L_uDnmq5nDxk4sU-8" value="" style="edgeStyle=orthogonalEdgeStyle;rounded=0;orthogonalLoop=1;jettySize=auto;html=1;" parent="1" source="T2LF8L_uDnmq5nDxk4sU-5" target="T2LF8L_uDnmq5nDxk4sU-7" edge="1">
          <mxGeometry relative="1" as="geometry" />
        </mxCell>
        <mxCell id="T2LF8L_uDnmq5nDxk4sU-5" value="&lt;font style=&quot;font-size: 9px;&quot;&gt;&lt;i&gt;AWS Lambda&lt;/i&gt;&lt;/font&gt;&lt;div&gt;&lt;font style=&quot;font-size: 9px;&quot;&gt;&lt;i&gt;Process Documents&lt;/i&gt;&lt;/font&gt;&lt;/div&gt;" style="sketch=0;outlineConnect=0;fontColor=#232F3E;gradientColor=none;fillColor=#7AA116;strokeColor=none;dashed=0;verticalLabelPosition=bottom;verticalAlign=top;align=center;html=1;fontSize=12;fontStyle=0;aspect=fixed;pointerEvents=1;shape=mxgraph.aws4.lambda_function;" parent="1" vertex="1">
          <mxGeometry x="240" y="262" width="48" height="48" as="geometry" />
        </mxCell>
        <mxCell id="T2LF8L_uDnmq5nDxk4sU-12" value="" style="edgeStyle=orthogonalEdgeStyle;rounded=0;orthogonalLoop=1;jettySize=auto;html=1;" parent="1" source="T2LF8L_uDnmq5nDxk4sU-7" target="T2LF8L_uDnmq5nDxk4sU-11" edge="1">
          <mxGeometry relative="1" as="geometry" />
        </mxCell>
        <mxCell id="T2LF8L_uDnmq5nDxk4sU-7" value="&lt;font style=&quot;font-size: 9px;&quot;&gt;&lt;i&gt;AWS Textract&lt;/i&gt;&lt;/font&gt;&lt;div&gt;&lt;font style=&quot;font-size: 9px;&quot;&gt;&lt;i&gt;async job&lt;/i&gt;&lt;/font&gt;&lt;/div&gt;&lt;div&gt;&lt;font style=&quot;font-size: 9px;&quot;&gt;&lt;i&gt;Text , Table, Key-Value Extraction&lt;/i&gt;&lt;/font&gt;&lt;/div&gt;" style="sketch=0;points=[[0,0,0],[0.25,0,0],[0.5,0,0],[0.75,0,0],[1,0,0],[0,1,0],[0.25,1,0],[0.5,1,0],[0.75,1,0],[1,1,0],[0,0.25,0],[0,0.5,0],[0,0.75,0],[1,0.25,0],[1,0.5,0],[1,0.75,0]];outlineConnect=0;fontColor=#232F3E;fillColor=#01A88D;strokeColor=#ffffff;dashed=0;verticalLabelPosition=bottom;verticalAlign=top;align=center;html=1;fontSize=12;fontStyle=0;aspect=fixed;shape=mxgraph.aws4.resourceIcon;resIcon=mxgraph.aws4.textract;" parent="1" vertex="1">
          <mxGeometry x="348" y="257.5" width="57" height="57" as="geometry" />
        </mxCell>
        <mxCell id="gYwktDeHYhvJT9wic2Yn-2" value="" style="edgeStyle=orthogonalEdgeStyle;rounded=0;orthogonalLoop=1;jettySize=auto;html=1;" edge="1" parent="1" source="T2LF8L_uDnmq5nDxk4sU-11" target="gYwktDeHYhvJT9wic2Yn-1">
          <mxGeometry relative="1" as="geometry" />
        </mxCell>
        <mxCell id="T2LF8L_uDnmq5nDxk4sU-11" value="&lt;i&gt;&lt;font style=&quot;font-size: 9px;&quot;&gt;Amazon S3&lt;/font&gt;&lt;/i&gt;&lt;div&gt;&lt;font size=&quot;1&quot;&gt;&lt;i&gt;Store Raw Data&lt;/i&gt;&lt;/font&gt;&lt;/div&gt;" style="sketch=0;points=[[0,0,0],[0.25,0,0],[0.5,0,0],[0.75,0,0],[1,0,0],[0,1,0],[0.25,1,0],[0.5,1,0],[0.75,1,0],[1,1,0],[0,0.25,0],[0,0.5,0],[0,0.75,0],[1,0.25,0],[1,0.5,0],[1,0.75,0]];outlineConnect=0;fontColor=#232F3E;fillColor=#7AA116;strokeColor=#ffffff;dashed=0;verticalLabelPosition=bottom;verticalAlign=top;align=center;html=1;fontSize=12;fontStyle=0;aspect=fixed;shape=mxgraph.aws4.resourceIcon;resIcon=mxgraph.aws4.s3;" parent="1" vertex="1">
          <mxGeometry x="470" y="261.5" width="48" height="48" as="geometry" />
        </mxCell>
        <mxCell id="gYwktDeHYhvJT9wic2Yn-5" value="" style="edgeStyle=orthogonalEdgeStyle;rounded=0;orthogonalLoop=1;jettySize=auto;html=1;" edge="1" parent="1" source="gYwktDeHYhvJT9wic2Yn-1" target="gYwktDeHYhvJT9wic2Yn-4">
          <mxGeometry relative="1" as="geometry" />
        </mxCell>
        <mxCell id="gYwktDeHYhvJT9wic2Yn-1" value="&lt;font style=&quot;font-size: 9px;&quot;&gt;&lt;i&gt;Amazon SNS&amp;nbsp;&lt;/i&gt;&lt;/font&gt;&lt;div&gt;&lt;font style=&quot;font-size: 9px;&quot;&gt;&lt;i&gt;Topic&lt;/i&gt;&lt;/font&gt;&lt;/div&gt;" style="sketch=0;points=[[0,0,0],[0.25,0,0],[0.5,0,0],[0.75,0,0],[1,0,0],[0,1,0],[0.25,1,0],[0.5,1,0],[0.75,1,0],[1,1,0],[0,0.25,0],[0,0.5,0],[0,0.75,0],[1,0.25,0],[1,0.5,0],[1,0.75,0]];outlineConnect=0;fontColor=#232F3E;fillColor=#E7157B;strokeColor=#ffffff;dashed=0;verticalLabelPosition=bottom;verticalAlign=top;align=center;html=1;fontSize=12;fontStyle=0;aspect=fixed;shape=mxgraph.aws4.resourceIcon;resIcon=mxgraph.aws4.sns;" vertex="1" parent="1">
          <mxGeometry x="560" y="258.5" width="53" height="53" as="geometry" />
        </mxCell>
        <mxCell id="gYwktDeHYhvJT9wic2Yn-9" style="edgeStyle=orthogonalEdgeStyle;rounded=0;orthogonalLoop=1;jettySize=auto;html=1;" edge="1" parent="1" source="gYwktDeHYhvJT9wic2Yn-4" target="gYwktDeHYhvJT9wic2Yn-8">
          <mxGeometry relative="1" as="geometry">
            <Array as="points">
              <mxPoint x="676" y="380" />
              <mxPoint x="164" y="380" />
            </Array>
          </mxGeometry>
        </mxCell>
        <mxCell id="gYwktDeHYhvJT9wic2Yn-4" value="&lt;font style=&quot;font-size: 9px;&quot;&gt;&lt;i&gt;Amazon SQS&lt;/i&gt;&lt;/font&gt;&lt;div&gt;&lt;font style=&quot;font-size: 9px;&quot;&gt;&lt;i&gt;Queue&lt;/i&gt;&lt;/font&gt;&lt;/div&gt;" style="sketch=0;points=[[0,0,0],[0.25,0,0],[0.5,0,0],[0.75,0,0],[1,0,0],[0,1,0],[0.25,1,0],[0.5,1,0],[0.75,1,0],[1,1,0],[0,0.25,0],[0,0.5,0],[0,0.75,0],[1,0.25,0],[1,0.5,0],[1,0.75,0]];outlineConnect=0;fontColor=#232F3E;fillColor=#E7157B;strokeColor=#ffffff;dashed=0;verticalLabelPosition=bottom;verticalAlign=top;align=center;html=1;fontSize=12;fontStyle=0;aspect=fixed;shape=mxgraph.aws4.resourceIcon;resIcon=mxgraph.aws4.sqs;" vertex="1" parent="1">
          <mxGeometry x="650" y="259.75" width="52.25" height="52.25" as="geometry" />
        </mxCell>
        <mxCell id="gYwktDeHYhvJT9wic2Yn-7" value="&lt;font style=&quot;font-size: 11px;&quot;&gt;Document Classification&lt;/font&gt;&lt;div&gt;&lt;span style=&quot;font-size: 11px;&quot;&gt;&lt;br&gt;&lt;/span&gt;&lt;/div&gt;&lt;div&gt;&lt;span style=&quot;font-size: 11px;&quot;&gt;&lt;br&gt;&lt;/span&gt;&lt;/div&gt;&lt;div&gt;&lt;span style=&quot;font-size: 11px;&quot;&gt;&lt;br&gt;&lt;/span&gt;&lt;/div&gt;&lt;div&gt;&lt;span style=&quot;font-size: 11px;&quot;&gt;&lt;br&gt;&lt;/span&gt;&lt;/div&gt;&lt;div&gt;&lt;span style=&quot;font-size: 11px;&quot;&gt;&lt;br&gt;&lt;/span&gt;&lt;/div&gt;&lt;div&gt;&lt;span style=&quot;font-size: 11px;&quot;&gt;&lt;br&gt;&lt;/span&gt;&lt;/div&gt;&lt;div&gt;&lt;span style=&quot;font-size: 11px;&quot;&gt;&lt;br&gt;&lt;/span&gt;&lt;/div&gt;&lt;div&gt;&lt;span style=&quot;font-size: 11px;&quot;&gt;&lt;br&gt;&lt;/span&gt;&lt;/div&gt;&lt;div&gt;&lt;span style=&quot;font-size: 11px;&quot;&gt;&lt;br&gt;&lt;/span&gt;&lt;/div&gt;&lt;div&gt;&lt;span style=&quot;font-size: 11px;&quot;&gt;&lt;br&gt;&lt;/span&gt;&lt;/div&gt;&lt;div&gt;&lt;span style=&quot;font-size: 11px;&quot;&gt;&lt;br&gt;&lt;/span&gt;&lt;/div&gt;&lt;div&gt;&lt;span style=&quot;font-size: 11px;&quot;&gt;&lt;br&gt;&lt;/span&gt;&lt;div&gt;&lt;br&gt;&lt;/div&gt;&lt;div&gt;&lt;br&gt;&lt;/div&gt;&lt;div&gt;&lt;br&gt;&lt;/div&gt;&lt;div&gt;&lt;br&gt;&lt;/div&gt;&lt;div&gt;&lt;br&gt;&lt;/div&gt;&lt;div&gt;&lt;br&gt;&lt;/div&gt;&lt;div&gt;&lt;br&gt;&lt;/div&gt;&lt;div&gt;&lt;br&gt;&lt;/div&gt;&lt;div&gt;&lt;br&gt;&lt;/div&gt;&lt;/div&gt;" style="rounded=1;whiteSpace=wrap;html=1;gradientColor=none;fillColor=none;dashed=1;dashPattern=8 8;" vertex="1" parent="1">
          <mxGeometry x="109" y="400" width="310" height="330" as="geometry" />
        </mxCell>
        <mxCell id="gYwktDeHYhvJT9wic2Yn-11" value="" style="edgeStyle=orthogonalEdgeStyle;rounded=0;orthogonalLoop=1;jettySize=auto;html=1;" edge="1" parent="1" source="gYwktDeHYhvJT9wic2Yn-8" target="gYwktDeHYhvJT9wic2Yn-10">
          <mxGeometry relative="1" as="geometry" />
        </mxCell>
        <mxCell id="gYwktDeHYhvJT9wic2Yn-8" value="&lt;font style=&quot;font-size: 9px;&quot;&gt;&lt;i&gt;AWS Lambda&lt;/i&gt;&lt;/font&gt;&lt;div&gt;&lt;font style=&quot;font-size: 9px;&quot;&gt;&lt;i&gt;Classify Documents&lt;/i&gt;&lt;/font&gt;&lt;/div&gt;" style="sketch=0;outlineConnect=0;fontColor=#232F3E;gradientColor=none;fillColor=#7AA116;strokeColor=none;dashed=0;verticalLabelPosition=bottom;verticalAlign=top;align=center;html=1;fontSize=12;fontStyle=0;aspect=fixed;pointerEvents=1;shape=mxgraph.aws4.lambda_function;" vertex="1" parent="1">
          <mxGeometry x="140" y="430" width="48" height="48" as="geometry" />
        </mxCell>
        <mxCell id="gYwktDeHYhvJT9wic2Yn-13" value="" style="edgeStyle=orthogonalEdgeStyle;rounded=0;orthogonalLoop=1;jettySize=auto;html=1;" edge="1" parent="1" source="gYwktDeHYhvJT9wic2Yn-10" target="gYwktDeHYhvJT9wic2Yn-12">
          <mxGeometry relative="1" as="geometry" />
        </mxCell>
        <mxCell id="gYwktDeHYhvJT9wic2Yn-10" value="&lt;font style=&quot;font-size: 9px;&quot;&gt;&lt;i&gt;AWS Comprehend&lt;/i&gt;&lt;/font&gt;&lt;div&gt;&lt;font style=&quot;font-size: 9px;&quot;&gt;&lt;i&gt;Custom Classifier&lt;/i&gt;&lt;/font&gt;&lt;/div&gt;" style="sketch=0;points=[[0,0,0],[0.25,0,0],[0.5,0,0],[0.75,0,0],[1,0,0],[0,1,0],[0.25,1,0],[0.5,1,0],[0.75,1,0],[1,1,0],[0,0.25,0],[0,0.5,0],[0,0.75,0],[1,0.25,0],[1,0.5,0],[1,0.75,0]];outlineConnect=0;fontColor=#232F3E;fillColor=#01A88D;strokeColor=#ffffff;dashed=0;verticalLabelPosition=bottom;verticalAlign=top;align=center;html=1;fontSize=12;fontStyle=0;aspect=fixed;shape=mxgraph.aws4.resourceIcon;resIcon=mxgraph.aws4.comprehend;" vertex="1" parent="1">
          <mxGeometry x="238" y="429" width="50" height="50" as="geometry" />
        </mxCell>
        <mxCell id="gYwktDeHYhvJT9wic2Yn-15" value="" style="edgeStyle=orthogonalEdgeStyle;rounded=0;orthogonalLoop=1;jettySize=auto;html=1;" edge="1" parent="1" source="gYwktDeHYhvJT9wic2Yn-12" target="gYwktDeHYhvJT9wic2Yn-14">
          <mxGeometry relative="1" as="geometry" />
        </mxCell>
        <mxCell id="gYwktDeHYhvJT9wic2Yn-12" value="&lt;i&gt;&lt;font style=&quot;font-size: 9px;&quot;&gt;Amazon S3&lt;/font&gt;&lt;/i&gt;" style="sketch=0;points=[[0,0,0],[0.25,0,0],[0.5,0,0],[0.75,0,0],[1,0,0],[0,1,0],[0.25,1,0],[0.5,1,0],[0.75,1,0],[1,1,0],[0,0.25,0],[0,0.5,0],[0,0.75,0],[1,0.25,0],[1,0.5,0],[1,0.75,0]];outlineConnect=0;fontColor=#232F3E;fillColor=#7AA116;strokeColor=#ffffff;dashed=0;verticalLabelPosition=bottom;verticalAlign=top;align=center;html=1;fontSize=12;fontStyle=0;aspect=fixed;shape=mxgraph.aws4.resourceIcon;resIcon=mxgraph.aws4.s3;" vertex="1" parent="1">
          <mxGeometry x="340" y="430" width="48" height="48" as="geometry" />
        </mxCell>
        <mxCell id="gYwktDeHYhvJT9wic2Yn-17" value="" style="edgeStyle=orthogonalEdgeStyle;rounded=0;orthogonalLoop=1;jettySize=auto;html=1;" edge="1" parent="1" source="gYwktDeHYhvJT9wic2Yn-14" target="gYwktDeHYhvJT9wic2Yn-16">
          <mxGeometry relative="1" as="geometry" />
        </mxCell>
        <mxCell id="gYwktDeHYhvJT9wic2Yn-14" value="&lt;font style=&quot;font-size: 9px;&quot;&gt;&lt;i&gt;AWS Lambda&lt;/i&gt;&lt;/font&gt;&lt;div&gt;&lt;font style=&quot;font-size: 9px;&quot;&gt;&lt;i&gt;Process Classification&amp;nbsp;&lt;/i&gt;&lt;/font&gt;&lt;/div&gt;&lt;div&gt;&lt;font style=&quot;font-size: 9px;&quot;&gt;&lt;i&gt;Results&lt;/i&gt;&lt;/font&gt;&lt;/div&gt;" style="sketch=0;outlineConnect=0;fontColor=#232F3E;gradientColor=none;fillColor=#7AA116;strokeColor=none;dashed=0;verticalLabelPosition=bottom;verticalAlign=top;align=center;html=1;fontSize=12;fontStyle=0;aspect=fixed;pointerEvents=1;shape=mxgraph.aws4.lambda_function;" vertex="1" parent="1">
          <mxGeometry x="340" y="520" width="48" height="48" as="geometry" />
        </mxCell>
        <mxCell id="gYwktDeHYhvJT9wic2Yn-16" value="&lt;i&gt;&lt;font style=&quot;font-size: 9px;&quot;&gt;Amazon S3&lt;/font&gt;&lt;/i&gt;&lt;div&gt;&lt;i&gt;&lt;font style=&quot;font-size: 9px;&quot;&gt;Classified Documents&lt;/font&gt;&lt;/i&gt;&lt;/div&gt;&lt;div&gt;&lt;i&gt;&lt;font style=&quot;font-size: 9px;&quot;&gt;Sorted by Prefix&lt;/font&gt;&lt;/i&gt;&lt;/div&gt;" style="sketch=0;points=[[0,0,0],[0.25,0,0],[0.5,0,0],[0.75,0,0],[1,0,0],[0,1,0],[0.25,1,0],[0.5,1,0],[0.75,1,0],[1,1,0],[0,0.25,0],[0,0.5,0],[0,0.75,0],[1,0.25,0],[1,0.5,0],[1,0.75,0]];outlineConnect=0;fontColor=#232F3E;fillColor=#7AA116;strokeColor=#ffffff;dashed=0;verticalLabelPosition=bottom;verticalAlign=top;align=center;html=1;fontSize=12;fontStyle=0;aspect=fixed;shape=mxgraph.aws4.resourceIcon;resIcon=mxgraph.aws4.s3;" vertex="1" parent="1">
          <mxGeometry x="240" y="520" width="48" height="48" as="geometry" />
        </mxCell>
      </root>
    </mxGraphModel>
  </diagram>
</mxfile>
